<svg xmlns="http://www.w3.org/2000/svg" xmlns:xlink="http://www.w3.org/1999/xlink" width="1024" zoomAndPan="magnify" viewBox="0 0 768 767.999994" height="1024" preserveAspectRatio="xMidYMid meet" version="1.2"><g id="d686b79073"><rect x="0" width="768" y="0" height="767.999994" style="fill:#ffffff;fill-opacity:1;stroke:none;"/><rect x="0" width="768" y="0" height="767.999994" style="fill:#ffffff;fill-opacity:1;stroke:none;"/><path style=" stroke:none;fill-rule:nonzero;fill:#000000;fill-opacity:0.2;" d="M 575.878906 671.839844 C 575.878906 672.785156 575.800781 673.726562 575.648438 674.667969 C 575.492188 675.609375 575.261719 676.546875 574.953125 677.484375 C 574.644531 678.425781 574.261719 679.359375 573.800781 680.292969 C 573.339844 681.222656 572.800781 682.152344 572.191406 683.078125 C 571.578125 684 570.890625 684.917969 570.125 685.835938 C 569.363281 686.75 568.523438 687.65625 567.613281 688.558594 C 566.699219 689.460938 565.714844 690.355469 564.65625 691.242188 C 563.597656 692.128906 562.46875 693.007812 561.265625 693.878906 C 560.0625 694.75 558.792969 695.609375 557.449219 696.464844 C 556.105469 697.316406 554.691406 698.15625 553.210938 698.988281 C 551.730469 699.820312 550.183594 700.636719 548.570312 701.445312 C 546.953125 702.253906 545.273438 703.050781 543.527344 703.835938 C 541.78125 704.617188 539.972656 705.386719 538.101562 706.144531 C 536.230469 706.902344 534.300781 707.644531 532.308594 708.375 C 530.3125 709.101562 528.261719 709.816406 526.152344 710.515625 C 524.042969 711.210938 521.878906 711.894531 519.65625 712.5625 C 517.433594 713.226562 515.160156 713.878906 512.832031 714.511719 C 510.503906 715.144531 508.128906 715.757812 505.699219 716.355469 C 503.269531 716.953125 500.792969 717.535156 498.269531 718.09375 C 495.746094 718.65625 493.179688 719.199219 490.566406 719.722656 C 487.957031 720.246094 485.304688 720.75 482.609375 721.234375 C 479.914062 721.71875 477.179688 722.183594 474.410156 722.628906 C 471.640625 723.074219 468.835938 723.496094 465.996094 723.898438 C 463.15625 724.300781 460.285156 724.683594 457.382812 725.042969 C 454.480469 725.40625 451.550781 725.742188 448.59375 726.0625 C 445.632812 726.378906 442.652344 726.675781 439.644531 726.949219 C 436.640625 727.222656 433.613281 727.472656 430.566406 727.703125 C 427.519531 727.929688 424.453125 728.136719 421.375 728.320312 C 418.292969 728.503906 415.199219 728.667969 412.089844 728.804688 C 408.984375 728.941406 405.867188 729.058594 402.738281 729.152344 C 399.613281 729.242188 396.480469 729.3125 393.34375 729.359375 C 390.207031 729.40625 387.066406 729.425781 383.925781 729.425781 C 380.785156 729.425781 377.644531 729.40625 374.507812 729.359375 C 371.367188 729.3125 368.238281 729.242188 365.109375 729.152344 C 361.984375 729.058594 358.867188 728.941406 355.757812 728.804688 C 352.652344 728.667969 349.558594 728.503906 346.476562 728.320312 C 343.394531 728.136719 340.332031 727.929688 337.285156 727.703125 C 334.238281 727.472656 331.210938 727.222656 328.203125 726.949219 C 325.199219 726.675781 322.214844 726.378906 319.257812 726.0625 C 316.300781 725.742188 313.371094 725.40625 310.46875 725.042969 C 307.566406 724.683594 304.695312 724.300781 301.855469 723.898438 C 299.015625 723.496094 296.210938 723.070312 293.4375 722.628906 C 290.667969 722.183594 287.9375 721.71875 285.242188 721.234375 C 282.546875 720.75 279.894531 720.246094 277.28125 719.722656 C 274.667969 719.199219 272.101562 718.65625 269.578125 718.09375 C 267.054688 717.535156 264.578125 716.953125 262.152344 716.355469 C 259.722656 715.757812 257.34375 715.144531 255.015625 714.511719 C 252.691406 713.878906 250.414062 713.226562 248.195312 712.5625 C 245.972656 711.894531 243.808594 711.210938 241.695312 710.515625 C 239.585938 709.816406 237.535156 709.101562 235.542969 708.375 C 233.550781 707.644531 231.617188 706.902344 229.746094 706.144531 C 227.875 705.386719 226.066406 704.617188 224.320312 703.835938 C 222.578125 703.050781 220.894531 702.253906 219.28125 701.445312 C 217.667969 700.636719 216.117188 699.820312 214.636719 698.988281 C 213.15625 698.15625 211.746094 697.316406 210.402344 696.460938 C 209.058594 695.609375 207.785156 694.75 206.582031 693.878906 C 205.382812 693.007812 204.25 692.128906 203.191406 691.242188 C 202.132812 690.355469 201.148438 689.460938 200.238281 688.558594 C 199.324219 687.65625 198.488281 686.75 197.722656 685.835938 C 196.960938 684.917969 196.273438 684 195.660156 683.078125 C 195.046875 682.152344 194.511719 681.222656 194.050781 680.292969 C 193.589844 679.359375 193.203125 678.425781 192.894531 677.484375 C 192.589844 676.546875 192.355469 675.609375 192.203125 674.667969 C 192.050781 673.726562 191.972656 672.785156 191.972656 671.839844 C 191.972656 670.898438 192.050781 669.957031 192.203125 669.015625 C 192.355469 668.074219 192.589844 667.136719 192.894531 666.199219 C 193.203125 665.257812 193.589844 664.324219 194.050781 663.390625 C 194.511719 662.460938 195.046875 661.53125 195.660156 660.605469 C 196.273438 659.683594 196.960938 658.765625 197.722656 657.847656 C 198.488281 656.933594 199.324219 656.027344 200.238281 655.125 C 201.148438 654.222656 202.132812 653.328125 203.191406 652.441406 C 204.25 651.554688 205.382812 650.675781 206.582031 649.804688 C 207.785156 648.933594 209.058594 648.074219 210.402344 647.21875 C 211.746094 646.367188 213.15625 645.527344 214.636719 644.695312 C 216.117188 643.863281 217.667969 643.046875 219.28125 642.238281 C 220.894531 641.429688 222.578125 640.632812 224.320312 639.847656 C 226.066406 639.066406 227.875 638.292969 229.746094 637.539062 C 231.617188 636.78125 233.550781 636.039062 235.542969 635.308594 C 237.535156 634.582031 239.585938 633.867188 241.695312 633.167969 C 243.808594 632.472656 245.972656 631.789062 248.195312 631.121094 C 250.414062 630.457031 252.691406 629.804688 255.015625 629.171875 C 257.34375 628.539062 259.722656 627.925781 262.152344 627.328125 C 264.578125 626.730469 267.054688 626.148438 269.578125 625.589844 C 272.101562 625.027344 274.667969 624.484375 277.28125 623.960938 C 279.894531 623.4375 282.546875 622.933594 285.242188 622.449219 C 287.9375 621.964844 290.667969 621.5 293.4375 621.054688 C 296.210938 620.609375 299.015625 620.1875 301.855469 619.785156 C 304.695312 619.382812 307.566406 619 310.46875 618.640625 C 313.371094 618.277344 316.300781 617.941406 319.257812 617.621094 C 322.214844 617.304688 325.199219 617.007812 328.203125 616.734375 C 331.210938 616.460938 334.238281 616.210938 337.285156 615.980469 C 340.332031 615.753906 343.394531 615.546875 346.476562 615.363281 C 349.558594 615.179688 352.652344 615.015625 355.757812 614.878906 C 358.867188 614.742188 361.984375 614.625 365.109375 614.53125 C 368.238281 614.441406 371.367188 614.371094 374.507812 614.324219 C 377.644531 614.277344 380.785156 614.253906 383.925781 614.253906 C 387.066406 614.253906 390.207031 614.277344 393.34375 614.324219 C 396.480469 614.371094 399.613281 614.441406 402.738281 614.53125 C 405.867188 614.625 408.984375 614.742188 412.089844 614.878906 C 415.199219 615.015625 418.292969 615.179688 421.375 615.363281 C 424.453125 615.546875 427.519531 615.753906 430.566406 615.980469 C 433.613281 616.210938 436.640625 616.460938 439.644531 616.734375 C 442.652344 617.007812 445.632812 617.304688 448.59375 617.621094 C 451.550781 617.941406 454.480469 618.277344 457.382812 618.640625 C 460.285156 619 463.15625 619.382812 465.996094 619.785156 C 468.835938 620.1875 471.640625 620.609375 474.410156 621.054688 C 477.179688 621.5 479.914062 621.964844 482.609375 622.449219 C 485.304688 622.933594 487.957031 623.4375 490.566406 623.960938 C 493.179688 624.484375 495.746094 625.027344 498.269531 625.589844 C 500.792969 626.148438 503.269531 626.730469 505.699219 627.328125 C 508.128906 627.925781 510.503906 628.539062 512.832031 629.171875 C 515.160156 629.804688 517.433594 630.457031 519.65625 631.121094 C 521.878906 631.789062 524.042969 632.472656 526.152344 633.167969 C 528.261719 633.867188 530.3125 634.582031 532.308594 635.308594 C 534.300781 636.039062 536.230469 636.78125 538.101562 637.539062 C 539.972656 638.292969 541.78125 639.066406 543.527344 639.847656 C 545.273438 640.632812 546.953125 641.429688 548.570312 642.238281 C 550.183594 643.046875 551.730469 643.863281 553.210938 644.695312 C 554.691406 645.527344 556.105469 646.367188 557.449219 647.21875 C 558.792969 648.074219 560.0625 648.933594 561.265625 649.804688 C 562.46875 650.675781 563.597656 651.554688 564.65625 652.441406 C 565.714844 653.328125 566.699219 654.222656 567.613281 655.125 C 568.523438 656.027344 569.363281 656.933594 570.125 657.847656 C 570.890625 658.765625 571.578125 659.683594 572.191406 660.605469 C 572.800781 661.53125 573.339844 662.460938 573.800781 663.390625 C 574.261719 664.324219 574.644531 665.257812 574.953125 666.199219 C 575.261719 667.136719 575.492188 668.074219 575.648438 669.015625 C 575.800781 669.957031 575.878906 670.898438 575.878906 671.839844 Z M 575.878906 671.839844 "/><path style=" stroke:none;fill-rule:nonzero;fill:#ff3131;fill-opacity:1;" d="M 383.925781 0.0078125 C 537.488281 0.0078125 652.660156 115.179688 652.660156 268.742188 C 652.660156 499.082031 383.925781 767.816406 383.925781 767.816406 C 383.925781 767.816406 115.191406 499.082031 115.191406 268.742188 C 115.191406 115.179688 230.363281 0.0078125 383.925781 0.0078125 Z M 383.925781 0.0078125 "/><path style=" stroke:none;fill-rule:nonzero;fill:#ffffff;fill-opacity:1;" d="M 499.097656 268.742188 C 499.097656 270.625 499.050781 272.507812 498.957031 274.390625 C 498.867188 276.273438 498.726562 278.152344 498.542969 280.027344 C 498.359375 281.90625 498.125 283.773438 497.851562 285.640625 C 497.574219 287.503906 497.25 289.359375 496.882812 291.210938 C 496.515625 293.058594 496.101562 294.894531 495.644531 296.726562 C 495.1875 298.554688 494.683594 300.367188 494.136719 302.171875 C 493.589844 303.976562 493 305.765625 492.363281 307.539062 C 491.730469 309.316406 491.050781 311.074219 490.328125 312.816406 C 489.609375 314.554688 488.84375 316.277344 488.039062 317.984375 C 487.234375 319.6875 486.386719 321.371094 485.496094 323.03125 C 484.609375 324.695312 483.679688 326.332031 482.710938 327.949219 C 481.742188 329.566406 480.734375 331.160156 479.6875 332.726562 C 478.640625 334.292969 477.554688 335.835938 476.433594 337.347656 C 475.308594 338.863281 474.148438 340.347656 472.953125 341.804688 C 471.757812 343.261719 470.527344 344.6875 469.261719 346.085938 C 467.996094 347.480469 466.695312 348.847656 465.363281 350.179688 C 464.03125 351.511719 462.667969 352.8125 461.269531 354.078125 C 459.875 355.34375 458.445312 356.574219 456.988281 357.769531 C 455.53125 358.964844 454.046875 360.125 452.53125 361.246094 C 451.019531 362.371094 449.476562 363.453125 447.910156 364.503906 C 446.34375 365.550781 444.75 366.558594 443.136719 367.527344 C 441.519531 368.496094 439.878906 369.425781 438.214844 370.3125 C 436.554688 371.203125 434.871094 372.046875 433.167969 372.855469 C 431.464844 373.660156 429.742188 374.421875 428 375.144531 C 426.257812 375.867188 424.5 376.542969 422.726562 377.179688 C 420.949219 377.816406 419.160156 378.40625 417.359375 378.953125 C 415.554688 379.5 413.738281 380.003906 411.910156 380.460938 C 410.082031 380.917969 408.242188 381.332031 406.394531 381.699219 C 404.546875 382.066406 402.6875 382.390625 400.824219 382.664062 C 398.960938 382.941406 397.089844 383.171875 395.214844 383.359375 C 393.339844 383.542969 391.457031 383.679688 389.578125 383.773438 C 387.695312 383.867188 385.808594 383.910156 383.925781 383.914062 C 382.039062 383.910156 380.15625 383.867188 378.273438 383.773438 C 376.390625 383.679688 374.511719 383.542969 372.636719 383.359375 C 370.761719 383.171875 368.890625 382.941406 367.027344 382.664062 C 365.160156 382.390625 363.304688 382.066406 361.457031 381.699219 C 359.605469 381.332031 357.769531 380.917969 355.941406 380.460938 C 354.113281 380.003906 352.296875 379.5 350.492188 378.953125 C 348.6875 378.40625 346.898438 377.816406 345.125 377.179688 C 343.351562 376.542969 341.59375 375.867188 339.851562 375.144531 C 338.109375 374.421875 336.386719 373.660156 334.683594 372.855469 C 332.980469 372.046875 331.296875 371.203125 329.632812 370.3125 C 327.972656 369.425781 326.332031 368.496094 324.714844 367.527344 C 323.097656 366.558594 321.507812 365.550781 319.9375 364.503906 C 318.371094 363.453125 316.832031 362.371094 315.316406 361.246094 C 313.804688 360.125 312.316406 358.964844 310.859375 357.769531 C 309.402344 356.574219 307.976562 355.34375 306.582031 354.078125 C 305.183594 352.8125 303.820312 351.511719 302.484375 350.179688 C 301.152344 348.847656 299.855469 347.480469 298.589844 346.085938 C 297.324219 344.6875 296.089844 343.261719 294.894531 341.804688 C 293.699219 340.347656 292.539062 338.863281 291.417969 337.347656 C 290.296875 335.835938 289.210938 334.292969 288.164062 332.726562 C 287.117188 331.160156 286.109375 329.566406 285.140625 327.949219 C 284.167969 326.332031 283.242188 324.695312 282.351562 323.03125 C 281.464844 321.371094 280.617188 319.6875 279.8125 317.984375 C 279.003906 316.277344 278.242188 314.554688 277.519531 312.816406 C 276.796875 311.074219 276.121094 309.316406 275.484375 307.539062 C 274.851562 305.765625 274.257812 303.976562 273.710938 302.171875 C 273.164062 300.367188 272.664062 298.554688 272.203125 296.726562 C 271.746094 294.894531 271.332031 293.058594 270.964844 291.210938 C 270.597656 289.359375 270.277344 287.503906 270 285.640625 C 269.722656 283.773438 269.492188 281.90625 269.308594 280.027344 C 269.121094 278.152344 268.984375 276.273438 268.890625 274.390625 C 268.800781 272.507812 268.753906 270.625 268.753906 268.742188 C 268.753906 266.855469 268.800781 264.972656 268.890625 263.089844 C 268.984375 261.207031 269.121094 259.328125 269.308594 257.453125 C 269.492188 255.574219 269.722656 253.707031 270 251.839844 C 270.277344 249.976562 270.597656 248.121094 270.964844 246.269531 C 271.332031 244.421875 271.746094 242.585938 272.203125 240.753906 C 272.664062 238.925781 273.164062 237.109375 273.710938 235.308594 C 274.257812 233.503906 274.851562 231.714844 275.484375 229.941406 C 276.121094 228.164062 276.796875 226.40625 277.519531 224.664062 C 278.242188 222.925781 279.003906 221.203125 279.8125 219.496094 C 280.617188 217.792969 281.464844 216.109375 282.351562 214.449219 C 283.242188 212.785156 284.167969 211.148438 285.140625 209.53125 C 286.109375 207.914062 287.117188 206.320312 288.164062 204.753906 C 289.210938 203.1875 290.296875 201.644531 291.417969 200.132812 C 292.539062 198.617188 293.699219 197.132812 294.894531 195.675781 C 296.089844 194.21875 297.324219 192.792969 298.589844 191.394531 C 299.855469 190 301.152344 188.632812 302.484375 187.300781 C 303.820312 185.96875 305.183594 184.667969 306.582031 183.402344 C 307.976562 182.136719 309.402344 180.90625 310.859375 179.710938 C 312.316406 178.515625 313.804688 177.355469 315.316406 176.234375 C 316.832031 175.109375 318.371094 174.027344 319.9375 172.976562 C 321.507812 171.929688 323.097656 170.921875 324.714844 169.953125 C 326.332031 168.984375 327.972656 168.054688 329.632812 167.167969 C 331.296875 166.277344 332.980469 165.433594 334.683594 164.625 C 336.386719 163.820312 338.109375 163.054688 339.851562 162.335938 C 341.59375 161.613281 343.351562 160.9375 345.125 160.300781 C 346.898438 159.664062 348.6875 159.074219 350.492188 158.527344 C 352.296875 157.980469 354.113281 157.476562 355.941406 157.019531 C 357.769531 156.5625 359.605469 156.148438 361.457031 155.78125 C 363.304688 155.414062 365.160156 155.089844 367.027344 154.816406 C 368.890625 154.539062 370.761719 154.308594 372.636719 154.121094 C 374.511719 153.9375 376.390625 153.800781 378.273438 153.707031 C 380.15625 153.613281 382.039062 153.570312 383.925781 153.570312 C 385.808594 153.570312 387.695312 153.613281 389.578125 153.707031 C 391.457031 153.800781 393.339844 153.9375 395.214844 154.121094 C 397.089844 154.308594 398.960938 154.539062 400.824219 154.816406 C 402.6875 155.089844 404.546875 155.414062 406.394531 155.78125 C 408.242188 156.148438 410.082031 156.5625 411.910156 157.019531 C 413.738281 157.476562 415.554688 157.980469 417.359375 158.527344 C 419.160156 159.074219 420.949219 159.664062 422.726562 160.300781 C 424.5 160.9375 426.257812 161.613281 428 162.335938 C 429.742188 163.054688 431.464844 163.820312 433.167969 164.625 C 434.871094 165.433594 436.554688 166.277344 438.214844 167.167969 C 439.878906 168.054688 441.519531 168.984375 443.136719 169.953125 C 444.75 170.921875 446.34375 171.929688 447.910156 172.976562 C 449.476562 174.027344 451.019531 175.109375 452.53125 176.234375 C 454.046875 177.355469 455.53125 178.515625 456.988281 179.710938 C 458.445312 180.90625 459.875 182.136719 461.269531 183.402344 C 462.667969 184.667969 464.03125 185.96875 465.363281 187.300781 C 466.695312 188.632812 467.996094 190 469.261719 191.394531 C 470.527344 192.792969 471.757812 194.21875 472.953125 195.675781 C 474.148438 197.132812 475.308594 198.617188 476.433594 200.132812 C 477.554688 201.644531 478.640625 203.1875 479.6875 204.753906 C 480.734375 206.320312 481.742188 207.914062 482.710938 209.53125 C 483.679688 211.148438 484.609375 212.785156 485.496094 214.449219 C 486.386719 216.109375 487.234375 217.792969 488.039062 219.496094 C 488.84375 221.203125 489.609375 222.925781 490.328125 224.664062 C 491.050781 226.40625 491.730469 228.164062 492.363281 229.941406 C 493 231.714844 493.589844 233.503906 494.136719 235.308594 C 494.683594 237.109375 495.1875 238.925781 495.644531 240.753906 C 496.101562 242.585938 496.515625 244.421875 496.882812 246.269531 C 497.25 248.121094 497.574219 249.976562 497.851562 251.839844 C 498.125 253.707031 498.359375 255.574219 498.542969 257.453125 C 498.726562 259.328125 498.867188 261.207031 498.957031 263.089844 C 499.050781 264.972656 499.097656 266.855469 499.097656 268.742188 Z M 499.097656 268.742188 "/></g></svg>